<svg xmlns="http://www.w3.org/2000/svg" viewBox="0 0 512 512" width="512" height="512">
  <!-- Background -->
  <rect x="10" y="10" width="492" height="492" rx="50" fill="#4a8af4" />
  
  <!-- Grid of widgets -->
  <rect x="50" y="50" width="180" height="180" rx="15" fill="#ffffff" opacity="0.9" />
  <rect x="50" y="250" width="180" height="180" rx="15" fill="#ffffff" opacity="0.9" />
  <rect x="250" y="50" width="180" height="80" rx="15" fill="#ffffff" opacity="0.9" />
  <rect x="250" y="150" width="80" height="80" rx="15" fill="#ffffff" opacity="0.9" />
  <rect x="350" y="150" width="80" height="80" rx="15" fill="#ffffff" opacity="0.9" />
  <rect x="250" y="250" width="180" height="180" rx="15" fill="#ffffff" opacity="0.9" />
  
  <!-- Widget details (simplified) -->
  <circle cx="140" cy="100" r="25" fill="#ffaa44" />
  <rect x="75" y="150" width="130" height="10" rx="5" fill="#333333" opacity="0.7" />
  <rect x="75" y="170" width="100" height="10" rx="5" fill="#333333" opacity="0.5" />
  
  <rect x="75" y="290" width="130" height="10" rx="5" fill="#333333" opacity="0.7" />
  <rect x="75" y="310" width="100" height="10" rx="5" fill="#333333" opacity="0.5" />
  <rect x="75" y="330" width="130" height="60" rx="5" fill="#4caf50" opacity="0.6" />
  
  <rect x="270" y="80" width="140" height="10" rx="5" fill="#333333" opacity="0.7" />
  
  <circle cx="290" cy="190" r="15" fill="#f44336" opacity="0.8" />
  <circle cx="390" cy="190" r="15" fill="#2196f3" opacity="0.8" />
  
  <text x="340" y="330" font-family="Arial, sans-serif" font-size="40" text-anchor="middle" fill="#333333">W</text>
</svg> 