<svg xmlns="http://www.w3.org/2000/svg" width="512" height="512" viewBox="0 0 512 512"><rect width="492" height="492" x="10" y="10" fill="#4a8af4" rx="50"/><rect width="180" height="180" x="50" y="50" fill="#fff" opacity=".9" rx="15"/><rect width="180" height="180" x="50" y="250" fill="#fff" opacity=".9" rx="15"/><rect width="180" height="80" x="250" y="50" fill="#fff" opacity=".9" rx="15"/><rect width="80" height="80" x="250" y="150" fill="#fff" opacity=".9" rx="15"/><rect width="80" height="80" x="350" y="150" fill="#fff" opacity=".9" rx="15"/><rect width="180" height="180" x="250" y="250" fill="#fff" opacity=".9" rx="15"/><circle cx="140" cy="100" r="25" fill="#fa4"/><rect width="130" height="10" x="75" y="150" fill="#333" opacity=".7" rx="5"/><rect width="100" height="10" x="75" y="170" fill="#333" opacity=".5" rx="5"/><rect width="130" height="10" x="75" y="290" fill="#333" opacity=".7" rx="5"/><rect width="100" height="10" x="75" y="310" fill="#333" opacity=".5" rx="5"/><rect width="130" height="60" x="75" y="330" fill="#4caf50" opacity=".6" rx="5"/><rect width="140" height="10" x="270" y="80" fill="#333" opacity=".7" rx="5"/><circle cx="290" cy="190" r="15" fill="#f44336" opacity=".8"/><circle cx="390" cy="190" r="15" fill="#2196f3" opacity=".8"/><text x="340" y="330" fill="#333" font-family="Arial, sans-serif" font-size="40" text-anchor="middle">W</text></svg>